# xmcd
#
# Track frame offsets: 
#        150
#        13042
#        31575
#        45380
#        64455
#        79970
#        99295
#        121627
#        145415
#        157640
#        181835
#        196422
#        224777
#
# Disc length: 3553 seconds
#
# Revision: 2
# Processed by: cddbd v1.5.2PL0 Copyright (c) Steve Scherf et al.
# Submitted via: ExactAudioCopyFreeDBPlugin 1.0
#
DISCID=a60ddf0d
DTITLE=KEB' MO' - Keep It Simple
DYEAR=2004
DGENRE=Blues
TTITLE0=France
TTITLE1=Let Your Light Shine
TTITLE2=One Friend
TTITLE3=Shave Yo' Legs
TTITLE4=Prosperity Blues
TTITLE5=Closer
TTITLE6=Keep It Simple
TTITLE7=Riley B. King
TTITLE8=House In California
TTITLE9=Walk Back In
TTITLE10=I'm Amazing
TTITLE11=Proving You Wrong
TTITLE12=DATA
EXTD=YEAR: 2004
EXTT0=
EXTT1=
EXTT2=
EXTT3=
EXTT4=
EXTT5=
EXTT6=
EXTT7=
EXTT8=
EXTT9=
EXTT10=
EXTT11=
EXTT12=
PLAYORDER=
